<?xml version="1.0" encoding="UTF-8"?>
<!--<!DOCTYPE svg PUBLIC "-//W3C//DTD SVG 1.1//EN" "http://www.w3.org/Graphics/SVG/1.1/DTD/svg11.dtd">-->
<svg xmlns="http://www.w3.org/2000/svg" version="1.1" width="512px" height="512px" style="shape-rendering:geometricPrecision; text-rendering:geometricPrecision; image-rendering:optimizeQuality; fill-rule:evenodd; clip-rule:evenodd" xmlns:xlink="http://www.w3.org/1999/xlink">
<g><path style="opacity:0.966" fill="#fefffe" d="M 453.5,25.5 C 474.642,25.8081 485.142,36.4747 485,57.5C 441.202,194.562 397.202,331.562 353,468.5C 343.453,485.264 329.953,489.431 312.5,481C 309,478.833 306.167,476 304,472.5C 281.13,406.39 258.963,340.057 237.5,273.5C 170.943,252.037 104.61,229.87 38.5,207C 24.5761,195.709 22.0761,182.209 31,166.5C 34.2102,162.813 38.0435,159.979 42.5,158C 179.644,113.895 316.644,69.7284 453.5,25.5 Z M 411.5,73.5 C 412.239,73.369 412.906,73.5357 413.5,74C 357.627,130.207 301.46,186.04 245,241.5C 187.38,222.46 129.88,203.127 72.5,183.5C 185.603,146.798 298.603,110.132 411.5,73.5 Z M 436.5,97.5 C 401.276,211.185 364.943,324.852 327.5,438.5C 307.873,381.12 288.54,323.62 269.5,266C 324.995,209.672 380.661,153.505 436.5,97.5 Z"/></g>
</svg>
